# xmcd
#
# Track frame offsets:
#  182
#  27835
#  44620
#  57740
#  75507
#  91330
#  104995
#  125027
#  149145
#  163892
#  200927
#  224305
#  250077
#  270915
#  292842
#  312735
#
# Disc length: 4467 seconds
#
# Revision: 3
# Processed by: cddbd v1.5.1PL2 Copyright (c) Steve Scherf et al.
# Submitted via: Collectorz.com_Music_Collector 6.11
#
DISCID=05117110
DTITLE=Various Artist - American Folk Blues Festival '70
DYEAR=1991
DGENRE=Blues
TTITLE0=The Chicago Blues All Stars - Introduction
TTITLE1=Big Walter "Shakey" Horton - The Chicago Blues All Stars - Hard Hearted Woman
TTITLE2=Big Walter "Shakey" Horton - The Chicago Blues All Stars - That Ain't It
TTITLE3=Bukka White - Maggie Lee Blues
TTITLE4=Bukka White - World Boogie
TTITLE5=Bukka White - Old Lady
TTITLE6=Champion Jack Dupree - Willie Dixon - Clifton James - Goin' to Louisiana
TTITLE7=Champion Jack Dupree - Willie Dixon - Clifton James - Blues Before Sunrise
TTITLE8=Sonny Terry - Brownie McGhee - Hootin' the Blues
TTITLE9=Sonny Terry - Brownie McGhee - Backwater Blues
TTITLE10=Brownie McGhee - Sonny Terry - Champion Jack Dupree - Willie Dixon - Clifton James - Walk On
TTITLE11=Brownie McGhee - Sonny Terry - When I Was Drinking
TTITLE12=Lee Jackson - The Chicago Blues All Stars - Juanita
TTITLE13=Lafayette Leak - Willie Dixon - Clifton James - After Hours
TTITLE14=Willie Dixon - The Chicago Blues All Stars - Crazy for My Baby
TTITLE15=Willie Dixon - The Chicago Blues All Stars - Sittin' and Cryin' the Blues
EXTD=
EXTT0=
EXTT1=
EXTT2=
EXTT3=
EXTT4=
EXTT5=
EXTT6=
EXTT7=
EXTT8=
EXTT9=
EXTT10=
EXTT11=
EXTT12=
EXTT13=
EXTT14=
EXTT15=
PLAYORDER=
